<svg width="99" height="46" viewBox="0 0 99 46" fill="none" xmlns="http://www.w3.org/2000/svg">
<path fill-rule="evenodd" clip-rule="evenodd" d="M0 23C0 10.2931 10.2961 0 23.0069 0C35.704 0 46.0137 10.2931 46.0137 23C46.0137 35.707 35.7176 46 23.0069 46C10.2961 46 0 35.707 0 23ZM39.9093 23C39.9093 13.6834 32.3263 6.1026 23.0069 6.1026C13.6875 6.1026 6.10441 13.6834 6.10441 23C6.10441 32.3167 13.6875 39.8974 23.0069 39.8974C32.3263 39.8974 39.9093 32.3167 39.9093 23Z" fill="#2D2D2D"/>
<path d="M84.8378 25.0749L79.8321 25.1292L83.9017 28.1669L92.6514 40.2094L86.8047 44.4541L78.0551 32.4116L76.4544 27.6651L74.8265 32.4794L66.0633 44.5219L60.2167 40.2772L68.9663 28.2347L72.9816 25.2376L67.9082 25.1834L53.746 20.5861L55.9843 13.6969L70.1465 18.3078L74.2296 21.1964L72.7103 16.355V1.46465H79.9543V16.355L78.4621 21.1286L82.5995 18.1993L96.7618 13.5885L99 20.4776L84.8378 25.0749Z" fill="#2D2D2D"/>
</svg>
